<mxfile host="app.diagrams.net" modified="2022-10-31T03:28:18.419Z" agent="5.0 (Windows NT 10.0; Win64; x64) AppleWebKit/537.36 (KHTML, like Gecko) Chrome/106.0.0.0 Safari/537.36" etag="ghb6mxdNr_Vr4NKUgpLL" version="20.5.1" type="github">
  <diagram id="C5RBs43oDa-KdzZeNtuy" name="Page-1">
    <mxGraphModel dx="1085" dy="650" grid="1" gridSize="10" guides="1" tooltips="1" connect="1" arrows="1" fold="1" page="1" pageScale="1" pageWidth="827" pageHeight="1169" math="0" shadow="0">
      <root>
        <mxCell id="WIyWlLk6GJQsqaUBKTNV-0" />
        <mxCell id="WIyWlLk6GJQsqaUBKTNV-1" parent="WIyWlLk6GJQsqaUBKTNV-0" />
        <mxCell id="GHMIqK8a_wbEJOKfrJMY-0" value="Users" style="rounded=0;whiteSpace=wrap;html=1;" vertex="1" parent="WIyWlLk6GJQsqaUBKTNV-1">
          <mxGeometry x="380" y="220" width="120" height="60" as="geometry" />
        </mxCell>
        <mxCell id="GHMIqK8a_wbEJOKfrJMY-1" value="Member" style="rounded=0;whiteSpace=wrap;html=1;" vertex="1" parent="WIyWlLk6GJQsqaUBKTNV-1">
          <mxGeometry x="160" y="220" width="120" height="60" as="geometry" />
        </mxCell>
        <mxCell id="GHMIqK8a_wbEJOKfrJMY-2" value="Event&lt;span style=&quot;color: rgba(0, 0, 0, 0); font-family: monospace; font-size: 0px; text-align: start;&quot;&gt;%3CmxGraphModel%3E%3Croot%3E%3CmxCell%20id%3D%220%22%2F%3E%3CmxCell%20id%3D%221%22%20parent%3D%220%22%2F%3E%3CmxCell%20id%3D%222%22%20value%3D%22Member%22%20style%3D%22rounded%3D0%3BwhiteSpace%3Dwrap%3Bhtml%3D1%3B%22%20vertex%3D%221%22%20parent%3D%221%22%3E%3CmxGeometry%20x%3D%22150%22%20y%3D%22190%22%20width%3D%22120%22%20height%3D%2260%22%20as%3D%22geometry%22%2F%3E%3C%2FmxCell%3E%3C%2Froot%3E%3C%2FmxGraphModel%3E&lt;/span&gt;" style="rounded=0;whiteSpace=wrap;html=1;" vertex="1" parent="WIyWlLk6GJQsqaUBKTNV-1">
          <mxGeometry x="380" y="50" width="120" height="60" as="geometry" />
        </mxCell>
        <mxCell id="GHMIqK8a_wbEJOKfrJMY-3" value="Berita" style="rounded=0;whiteSpace=wrap;html=1;" vertex="1" parent="WIyWlLk6GJQsqaUBKTNV-1">
          <mxGeometry x="380" y="330" width="120" height="60" as="geometry" />
        </mxCell>
        <mxCell id="GHMIqK8a_wbEJOKfrJMY-4" value="Apps" style="rounded=0;whiteSpace=wrap;html=1;" vertex="1" parent="WIyWlLk6GJQsqaUBKTNV-1">
          <mxGeometry x="580" y="220" width="120" height="60" as="geometry" />
        </mxCell>
        <mxCell id="GHMIqK8a_wbEJOKfrJMY-5" value="" style="endArrow=classic;html=1;rounded=0;" edge="1" parent="WIyWlLk6GJQsqaUBKTNV-1" source="GHMIqK8a_wbEJOKfrJMY-0" target="GHMIqK8a_wbEJOKfrJMY-1">
          <mxGeometry width="50" height="50" relative="1" as="geometry">
            <mxPoint x="209" y="170" as="sourcePoint" />
            <mxPoint x="210" y="210" as="targetPoint" />
          </mxGeometry>
        </mxCell>
        <mxCell id="GHMIqK8a_wbEJOKfrJMY-6" value="" style="endArrow=classic;html=1;rounded=0;" edge="1" parent="WIyWlLk6GJQsqaUBKTNV-1" source="GHMIqK8a_wbEJOKfrJMY-0" target="GHMIqK8a_wbEJOKfrJMY-2">
          <mxGeometry width="50" height="50" relative="1" as="geometry">
            <mxPoint x="320" y="130" as="sourcePoint" />
            <mxPoint x="450" y="170" as="targetPoint" />
          </mxGeometry>
        </mxCell>
        <mxCell id="GHMIqK8a_wbEJOKfrJMY-7" value="" style="endArrow=classic;html=1;rounded=0;" edge="1" parent="WIyWlLk6GJQsqaUBKTNV-1" source="GHMIqK8a_wbEJOKfrJMY-0" target="GHMIqK8a_wbEJOKfrJMY-3">
          <mxGeometry width="50" height="50" relative="1" as="geometry">
            <mxPoint x="270" y="160" as="sourcePoint" />
            <mxPoint x="400.0000000000002" y="210.56" as="targetPoint" />
          </mxGeometry>
        </mxCell>
        <mxCell id="GHMIqK8a_wbEJOKfrJMY-8" value="" style="endArrow=classic;html=1;rounded=0;" edge="1" parent="WIyWlLk6GJQsqaUBKTNV-1" source="GHMIqK8a_wbEJOKfrJMY-0" target="GHMIqK8a_wbEJOKfrJMY-4">
          <mxGeometry width="50" height="50" relative="1" as="geometry">
            <mxPoint x="510" y="249" as="sourcePoint" />
            <mxPoint x="550.0000000000002" y="249.44" as="targetPoint" />
          </mxGeometry>
        </mxCell>
        <mxCell id="GHMIqK8a_wbEJOKfrJMY-11" value="Category" style="rounded=0;whiteSpace=wrap;html=1;" vertex="1" parent="WIyWlLk6GJQsqaUBKTNV-1">
          <mxGeometry x="380" y="460" width="120" height="60" as="geometry" />
        </mxCell>
        <mxCell id="GHMIqK8a_wbEJOKfrJMY-12" value="" style="endArrow=classic;html=1;rounded=0;entryX=0.5;entryY=0;entryDx=0;entryDy=0;" edge="1" parent="WIyWlLk6GJQsqaUBKTNV-1" source="GHMIqK8a_wbEJOKfrJMY-3" target="GHMIqK8a_wbEJOKfrJMY-11">
          <mxGeometry width="50" height="50" relative="1" as="geometry">
            <mxPoint x="439.4400000000002" y="390" as="sourcePoint" />
            <mxPoint x="439.4400000000002" y="440" as="targetPoint" />
          </mxGeometry>
        </mxCell>
        <mxCell id="GHMIqK8a_wbEJOKfrJMY-13" value="" style="endArrow=classic;html=1;rounded=0;entryX=0;entryY=0;entryDx=0;entryDy=0;" edge="1" parent="WIyWlLk6GJQsqaUBKTNV-1" source="GHMIqK8a_wbEJOKfrJMY-1" target="GHMIqK8a_wbEJOKfrJMY-11">
          <mxGeometry width="50" height="50" relative="1" as="geometry">
            <mxPoint x="209.44000000000023" y="280" as="sourcePoint" />
            <mxPoint x="209" y="500" as="targetPoint" />
          </mxGeometry>
        </mxCell>
        <mxCell id="GHMIqK8a_wbEJOKfrJMY-14" value="" style="endArrow=classic;html=1;rounded=0;entryX=1;entryY=0;entryDx=0;entryDy=0;" edge="1" parent="WIyWlLk6GJQsqaUBKTNV-1" source="GHMIqK8a_wbEJOKfrJMY-4" target="GHMIqK8a_wbEJOKfrJMY-11">
          <mxGeometry width="50" height="50" relative="1" as="geometry">
            <mxPoint x="619.9981818181818" y="290" as="sourcePoint" />
            <mxPoint x="758.1800000000003" y="480" as="targetPoint" />
          </mxGeometry>
        </mxCell>
        <mxCell id="GHMIqK8a_wbEJOKfrJMY-15" value="" style="endArrow=classic;html=1;rounded=0;" edge="1" parent="WIyWlLk6GJQsqaUBKTNV-1" source="GHMIqK8a_wbEJOKfrJMY-2" target="GHMIqK8a_wbEJOKfrJMY-11">
          <mxGeometry width="50" height="50" relative="1" as="geometry">
            <mxPoint x="75" y="495.28" as="sourcePoint" />
            <mxPoint x="365" y="504.71999999999997" as="targetPoint" />
            <Array as="points">
              <mxPoint x="140" y="80" />
              <mxPoint x="140" y="490" />
            </Array>
          </mxGeometry>
        </mxCell>
      </root>
    </mxGraphModel>
  </diagram>
</mxfile>
